<svg xmlns="http://www.w3.org/2000/svg" viewBox="0 0 64 64" role="img" aria-label="Household ledger icon">
  <defs>
    <linearGradient id="cover" x1="15" y1="8" x2="50" y2="58" gradientUnits="userSpaceOnUse">
      <stop stop-color="#6f8f68"/>
      <stop offset="1" stop-color="#315943"/>
    </linearGradient>
    <linearGradient id="paper" x1="22" y1="13" x2="47" y2="52" gradientUnits="userSpaceOnUse">
      <stop stop-color="#fffaf0"/>
      <stop offset="1" stop-color="#f0dcc0"/>
    </linearGradient>
    <filter id="shadow" x="-30%" y="-20%" width="160%" height="150%">
      <feDropShadow dx="0" dy="4" stdDeviation="3" flood-color="#2f241b" flood-opacity=".25"/>
    </filter>
  </defs>

  <rect width="64" height="64" rx="14" fill="#f7f1e7"/>
  <path fill="#e7d5bb" d="M10 51c11-6 21-4 33-10 6-3 9-8 11-12v23H10z" opacity=".55"/>

  <g filter="url(#shadow)">
    <path fill="url(#cover)" d="M15 10h29c4.4 0 8 3.6 8 8v35.5c0 1.9-1.6 3.5-3.5 3.5H18c-3.3 0-6-2.7-6-6V13c0-1.7 1.3-3 3-3z"/>
    <path fill="#254334" d="M15 10h7v47h-4c-3.3 0-6-2.7-6-6V13c0-1.7 1.3-3 3-3z"/>
    <path fill="url(#paper)" d="M22 15h23c1.7 0 3 1.3 3 3v30c0 1.7-1.3 3-3 3H22z"/>
    <path fill="#d7bd98" d="M22 15h3v36h-3z" opacity=".55"/>
  </g>

  <path fill="none" stroke="#b99161" stroke-linecap="round" stroke-width="2.6" d="M30 25h11M30 32h11M30 39h8"/>
  <path fill="#315943" d="M33.8 22.6h2.6l.8 4.3.9-4.3h2.5l-1.7 6.8h-2.7l-.9-4.1-1 4.1h-2.7l-1.7-6.8h2.5l.9 4.3z"/>

  <circle cx="47" cy="47" r="11" fill="#c96f42"/>
  <path fill="none" stroke="#fffaf0" stroke-linecap="round" stroke-linejoin="round" stroke-width="4" d="m41.8 47.5 3.4 3.5 7.1-8"/>
</svg>
