<svg xmlns="http://www.w3.org/2000/svg" viewBox="0 0 64 64" role="img" aria-label="MoneyChecks icon">
  <defs>
    <linearGradient id="bg" x1="10" y1="8" x2="56" y2="58" gradientUnits="userSpaceOnUse">
      <stop stop-color="#3f352b"/>
      <stop offset=".54" stop-color="#7a5131"/>
      <stop offset="1" stop-color="#c58a48"/>
    </linearGradient>
    <linearGradient id="coin" x1="20" y1="15" x2="48" y2="50" gradientUnits="userSpaceOnUse">
      <stop stop-color="#fff4cf"/>
      <stop offset=".52" stop-color="#f2bf63"/>
      <stop offset="1" stop-color="#d5793e"/>
    </linearGradient>
    <filter id="shadow" x="-20%" y="-20%" width="140%" height="140%">
      <feDropShadow dx="0" dy="4" stdDeviation="3" flood-color="#2d2117" flood-opacity=".28"/>
    </filter>
  </defs>
  <rect width="64" height="64" rx="16" fill="url(#bg)"/>
  <path fill="#fdf8ee" fill-opacity=".16" d="M8 49c11-6 17-1 27-8 9-6 12-19 21-21v35H8z"/>
  <circle cx="32" cy="32" r="19" fill="url(#coin)" filter="url(#shadow)"/>
  <circle cx="32" cy="32" r="14" fill="none" stroke="#6b4528" stroke-opacity=".28" stroke-width="3"/>
  <path fill="none" stroke="#fffdf7" stroke-linecap="round" stroke-linejoin="round" stroke-width="6" d="m20 34 8 8 17-20"/>
  <path fill="none" stroke="#2f6f5f" stroke-linecap="round" stroke-linejoin="round" stroke-width="4" d="M18 23h8l5-6 6 7h9"/>
  <circle cx="49" cy="15" r="4" fill="#91ad8d"/>
  <path fill="#fffdf7" d="M49 10.6 50.1 14l3.3 1-3.3 1.1-1.1 3.3-1-3.3-3.4-1.1L48 14z"/>
</svg>
